<?xml version="1.0" encoding="UTF-8" standalone="no"?>
<!-- Created with Inkscape (http://www.inkscape.org/) -->
<svg width="48" height="48" viewBox="0 0 12.7 12.7" version="1.1" id="svg1" inkscape:export-filename="circle-gameful.svg" inkscape:export-xdpi="96" inkscape:export-ydpi="96" inkscape:version="1.3 (0e150ed6c4, 2023-07-21)" sodipodi:docname="circle-gameful.svg" xmlns:inkscape="http://www.inkscape.org/namespaces/inkscape" xmlns:sodipodi="http://sodipodi.sourceforge.net/DTD/sodipodi-0.dtd" xmlns="http://www.w3.org/2000/svg" xmlns:svg="http://www.w3.org/2000/svg">
  <sodipodi:namedview id="namedview1" pagecolor="#ffffff" bordercolor="#111111" borderopacity="0.25" inkscape:showpageshadow="2" inkscape:pageopacity="0.0" inkscape:pagecheckerboard="0" inkscape:deskcolor="#d1d1d1" inkscape:document-units="mm" showguides="true" inkscape:zoom="11.822492" inkscape:cx="48.509231" inkscape:cy="38.189918" inkscape:window-width="3440" inkscape:window-height="1369" inkscape:window-x="-8" inkscape:window-y="-8" inkscape:window-maximized="1" inkscape:current-layer="layer1">
    <sodipodi:guide position="6.3457482,16.561253" orientation="1,0" id="guide1" inkscape:locked="false"/>
  </sodipodi:namedview>
  <defs id="defs1">
    <clipPath clipPathUnits="userSpaceOnUse" id="clipPath4">
      <g inkscape:label="Clip" id="use4" style="fill:#ffc939;fill-opacity:1">
        <g id="g5" transform="translate(12.155121,-0.72902825)" style="fill:#ffc939;fill-opacity:1"/>
      </g>
    </clipPath>
  </defs>
  <g inkscape:label="Layer 1" inkscape:groupmode="layer" id="layer1">
    <circle style="fill:#111111;stroke-width:0.264583" id="path2" cx="6.3499999" cy="6.3499999" r="6.0371642"/>
    <path d="m 6.6929781,5.1615375 c 0,-0.327032 -0.071788,-0.9172686 -0.5184569,-0.9172686 -0.3110738,0 -0.4466706,0.2951136 -0.4466706,0.5742868 0,0.3031027 0.079758,0.9651275 0.4865517,0.9651275 0.3589326,0 0.4785758,-0.3110727 0.4785758,-0.6221457 z M 5.1934411,8.08882 c 0,0.4227497 0.6221484,0.5344169 0.9332222,0.5344169 0.2632168,0 0.8614369,-0.039898 0.8614369,-0.4067904 0,-0.1675058 -0.1595253,-0.239294 -0.3110748,-0.239294 -0.1196431,0 -0.4307179,0.047878 -0.6859579,0.047878 -0.1834538,0 -0.6141727,-0.063837 -0.7019116,-0.063837 -0.071788,0 -0.095715,0.071816 -0.095715,0.1276172 z M 8.6870435,7.6262001 c 0,0.7178638 -0.6859589,1.682991 -2.6401423,1.682991 -1.4756086,0 -2.0339466,-0.5583369 -2.0339466,-1.0688152 0,-0.4626291 0.4386937,-0.4705994 0.4386937,-0.5902463 0,-0.1036878 -0.4307179,-0.327032 -0.4307179,-0.677984 0,-0.5663168 0.646078,-0.7338131 0.646078,-0.8454806 0,-0.095718 -0.5423864,-0.4626287 -0.5423864,-1.0528655 0,-0.9651275 1.2044159,-1.4117972 2.0100181,-1.4117972 0.4067895,0 0.9571507,0.1515467 1.2363202,0.1515467 0.6061959,0 0.9092938,-0.4227402 1.0289379,-0.4227402 0.5895082,0.2454693 0.043282,0.9185274 -0.1834536,1.2442913 0,0.079796 0.02393,0.1675058 0.02393,0.2472642 0,1.0767949 -1.2522728,1.4437062 -2.1296621,1.4437062 -0.135596,0 -0.2711927,-0.023939 -0.4147655,-0.023939 -0.1355959,0 -0.2153589,0.087775 -0.2153589,0.2153552 0,0.2472642 0.3509558,0.2951229 0.5344095,0.2951229 0.2472643,0 1.1725106,-0.1355967 1.4915602,-0.1355967 0.8295318,0 1.1804876,0.470599 1.1804876,0.9491777 z" id="path1" style="fill:#ffffff;fill-opacity:1;stroke-width:0.199406" sodipodi:nodetypes="ssssssssssssssssssssssssssssssss"/>
  </g>
</svg>