<?xml version="1.0" standalone="no"?>
<!DOCTYPE svg PUBLIC "-//W3C//DTD SVG 20010904//EN"
 "http://www.w3.org/TR/2001/REC-SVG-20010904/DTD/svg10.dtd">
<svg version="1.0" xmlns="http://www.w3.org/2000/svg"
 width="700.000000pt" height="700.000000pt" viewBox="0 0 700.000000 700.000000"
 preserveAspectRatio="xMidYMid meet">
<metadata>
Created by potrace 1.14, written by Peter Selinger 2001-2017
</metadata>
<g transform="translate(0.000000,700.000000) scale(0.100000,-0.100000)"
fill="#000000" stroke="none">
<path d="M3260 6824 c-19 -2 -80 -9 -135 -15 -1451 -156 -2647 -1277 -2905
-2724 -37 -210 -45 -316 -45 -590 0 -321 19 -492 85 -771 294 -1243 1302
-2223 2555 -2483 255 -53 384 -66 680 -66 274 0 381 8 590 45 1350 241 2421
1293 2684 2640 46 232 55 343 56 635 0 274 -5 348 -41 565 -63 386 -212 792
-418 1138 -527 885 -1416 1470 -2446 1608 -109 14 -580 27 -660 18z m1663
-1393 c71 -46 101 -99 106 -188 6 -125 -39 -229 -201 -469 l-88 -131 6 -124
c17 -364 -157 -629 -531 -810 -313 -151 -599 -198 -1092 -180 -125 5 -147 -3
-183 -62 -43 -70 -17 -163 59 -214 108 -73 231 -77 721 -22 562 62 727 59 925
-16 100 -37 175 -87 246 -163 303 -321 154 -883 -317 -1198 -214 -143 -492
-239 -839 -291 -153 -22 -677 -25 -825 -5 -386 55 -649 165 -811 340 -105 113
-156 243 -147 372 9 123 61 200 186 277 84 51 102 68 102 95 0 10 -48 69 -108
131 -59 62 -120 137 -137 167 -28 51 -30 62 -30 160 0 100 2 109 34 175 43 87
140 186 267 272 106 72 118 85 110 115 -3 13 -47 70 -97 128 -186 215 -250
361 -250 568 1 314 194 570 565 748 217 104 447 161 686 171 166 6 263 -2 559
-51 283 -47 354 -52 469 -32 158 28 271 81 470 221 35 25 71 45 81 45 9 0 38
-13 64 -29z"/>
<path d="M3262 4874 c-137 -68 -196 -230 -173 -472 39 -418 210 -606 451 -501
89 39 146 119 176 246 22 91 14 313 -15 430 -23 94 -67 186 -111 237 -76 86
-222 113 -328 60z"/>
<path d="M2746 2409 c-24 -35 -21 -114 8 -174 43 -94 160 -170 331 -216 111
-30 371 -38 502 -15 225 39 336 122 338 253 0 58 -20 93 -74 130 -51 35 -109
37 -357 18 -222 -18 -236 -18 -405 -1 -96 10 -208 21 -250 23 -71 5 -77 4 -93
-18z"/>
</g>
</svg>
